<?xml version="1.0" encoding="UTF-8" standalone="no"?>
<!-- Created with Inkscape (http://www.inkscape.org/) -->

<svg
   xmlns:dc="http://purl.org/dc/elements/1.1/"
   xmlns:cc="http://creativecommons.org/ns#"
   xmlns:rdf="http://www.w3.org/1999/02/22-rdf-syntax-ns#"
   xmlns:svg="http://www.w3.org/2000/svg"
   xmlns="http://www.w3.org/2000/svg"
   xmlns:sodipodi="http://sodipodi.sourceforge.net/DTD/sodipodi-0.dtd"
   xmlns:inkscape="http://www.inkscape.org/namespaces/inkscape"
   id="svg2996"
   version="1.1"
   inkscape:version="0.48.4 r9939"
   width="1500"
   height="1500"
   sodipodi:docname="logo.svg"
   inkscape:export-filename="/home/lindwurm/logo/logo.png"
   inkscape:export-xdpi="90"
   inkscape:export-ydpi="90">
  <metadata
     id="metadata3002">
    <rdf:RDF>
      <cc:Work
         rdf:about="">
        <dc:format>image/svg+xml</dc:format>
        <dc:type
           rdf:resource="http://purl.org/dc/dcmitype/StillImage" />
        <dc:title></dc:title>
      </cc:Work>
    </rdf:RDF>
  </metadata>
  <defs
     id="defs3000" />
  <sodipodi:namedview
     pagecolor="#ffffff"
     bordercolor="#666666"
     borderopacity="1"
     objecttolerance="10"
     gridtolerance="10"
     guidetolerance="10"
     inkscape:pageopacity="0"
     inkscape:pageshadow="2"
     inkscape:window-width="1366"
     inkscape:window-height="713"
     id="namedview2998"
     showgrid="true"
     inkscape:zoom="0.1767767"
     inkscape:cx="-1132.9444"
     inkscape:cy="914.87868"
     inkscape:window-x="0"
     inkscape:window-y="306"
     inkscape:window-maximized="1"
     inkscape:current-layer="svg2996"
     fit-margin-top="100"
     fit-margin-left="100"
     fit-margin-right="100"
     fit-margin-bottom="100"
     borderlayer="false"
     inkscape:showpageshadow="true"
     showborder="true"
     showguides="false"
     inkscape:snap-from-guide="true">
    <sodipodi:guide
       position="58.439033,156.86644"
       orientation="0,1000"
       id="guide3813" />
    <sodipodi:guide
       position="1058.439,156.86644"
       orientation="-1000,0"
       id="guide3815" />
    <sodipodi:guide
       position="1058.439,1156.8665"
       orientation="0,-1000"
       id="guide3817" />
    <sodipodi:guide
       position="58.439033,1156.8665"
       orientation="1000,0"
       id="guide3819" />
    <inkscape:grid
       type="xygrid"
       id="grid3821"
       empspacing="5"
       visible="true"
       enabled="true"
       snapvisiblegridlinesonly="true" />
  </sodipodi:namedview>
  <path
     style="fill:#ff3f3f;fill-opacity:1;stroke:#ff9d9d;stroke-width:30;stroke-linecap:butt;stroke-linejoin:round;stroke-miterlimit:4;stroke-opacity:1;stroke-dasharray:none"
     d="m 665.03772,1220.7261 c -15.77021,-13.8357 -24.17355,-40.9416 -20.78977,-67.06 1.49984,-11.5765 -2.62703,2.6711 110.53953,-381.62655 21.73728,-73.81667 50.09102,-170.19671 63.00835,-214.17787 12.91734,-43.98114 30.4781,-103.73083 39.02398,-132.77706 8.76766,-29.80017 16.94162,-55.77033 18.75945,-59.60228 8.32842,-17.55617 29.16744,-31.77135 45.65929,-31.14613 l 5.77071,0.21878 234.29164,135.19482 234.2918,135.1948 3.077,4.88677 c 8.7938,13.96494 6.9156,39.09758 -4.1191,55.12545 -2.6092,3.78997 -33.7522,37.1681 -80.176,85.93081 -73.3601,77.05604 -131.5586,138.20625 -283.0045,297.35886 -172.13371,180.8934 -193.29628,202.9819 -199.3347,208.0567 -21.5395,18.1022 -49.50545,25.6417 -71.07422,19.1609 -5.25543,-1.5791 -13.72622,-6.1862 -49.59766,-26.9761 -23.79274,-13.7899 -44.63944,-26.2825 -46.3258,-27.7619 z m 531.04038,-512.12267 39.7337,-68.8584 -129.4884,-74.71948 -129.48849,-74.71945 -39.4578,67.86307 c -21.70181,37.32466 -39.55329,68.4591 -39.66992,69.18762 -0.16892,1.05497 26.12952,16.46512 129.21241,75.71483 l 129.4245,74.39025 39.7339,-68.8584 z"
     id="path3006-7"
     inkscape:connector-curvature="0" />
  <path
     style="fill:#ff3f3f;fill-opacity:1;stroke:#ff9d9d;stroke-width:30;stroke-linecap:round;stroke-linejoin:round;stroke-miterlimit:4;stroke-opacity:1;stroke-dasharray:none"
     d="m 613.24887,1205.9955 c -20.93494,1.363 -46.04062,-11.8677 -62.11153,-32.7327 -7.12308,-9.2479 0.0303,3.7464 -191.60549,-348.0591 C 322.72207,757.62819 274.641,669.41676 252.68505,629.17828 230.72908,588.93981 200.9099,534.26603 186.4202,507.68099 171.5544,480.4059 158.97627,456.25941 157.55301,452.26408 c -6.52069,-18.3047 -1.83108,-43.09067 10.27514,-54.3072 l 4.23613,-3.92481 261.28294,-70.01055 261.28293,-70.01055 5.631,1.28091 c 16.09185,3.66054 32.53084,22.7638 36.05702,41.90081 0.8338,4.52515 2.40368,50.14868 4.0416,117.45617 2.58828,106.36103 4.65573,190.75369 10.05349,410.38138 6.13512,249.62926 6.78266,280.21246 6.09946,288.07066 -2.4371,28.0304 -16.88677,53.133 -36.72328,63.7972 -4.83332,2.5984 -14.08153,5.3281 -54.14965,15.983 -26.57642,7.0673 -50.15236,12.9686 -52.39092,13.1144 z M 626.79934,468.37101 606.22322,391.5799 461.81731,430.27335 317.4114,468.9668 l 20.06766,75.89206 c 11.03722,41.74064 20.42153,76.38112 20.85404,76.97884 0.62633,0.86558 30.12057,-6.82667 144.91437,-37.79441 l 144.12798,-38.88118 -20.57611,-76.7911 z"
     id="path3006"
     inkscape:connector-curvature="0" />
</svg>
